HIERARCHY
ROOT Hips
{
  OFFSET 51.771 100.708 9.53786
  CHANNELS 6 Xposition Yposition Zposition Zrotation Xrotation Yrotation
  JOINT spine
  {
    OFFSET 0 8.81705 0.507024
    CHANNELS 3 Zrotation Xrotation Yrotation
    JOINT spine1
    {
      OFFSET 0 10.7766 0
      CHANNELS 3 Zrotation Xrotation Yrotation
      JOINT spine2
      {
        OFFSET 0 10.3259 0
        CHANNELS 3 Zrotation Xrotation Yrotation
        JOINT Neck
        {
          OFFSET 0 26.511 1.26395
          CHANNELS 3 Zrotation Xrotation Yrotation
          JOINT Head
          {
            OFFSET 0 8.00966 0
            CHANNELS 3 Zrotation Xrotation Yrotation
            End Site
            {
              OFFSET 0 19.3879 -6.39386
            }
          }
        }
        JOINT RightShoulder
        {
          OFFSET -4.34795 11.1512 -0.605422
          CHANNELS 3 Zrotation Xrotation Yrotation
          JOINT RightArm
          {
            OFFSET 0 14.6258 0
            CHANNELS 3 Zrotation Xrotation Yrotation
            JOINT RightArmRoll
            {
              OFFSET 0 7.3834 0
              CHANNELS 3 Zrotation Xrotation Yrotation
              JOINT RightForeArm
              {
                OFFSET 0 21.5052 0
                CHANNELS 3 Zrotation Xrotation Yrotation
                JOINT RightForeArmRoll
                {
                  OFFSET 0 8.28532 0
                  CHANNELS 3 Zrotation Xrotation Yrotation
                  JOINT RightHand
                  {
                    OFFSET 0 16.6268 0
                    CHANNELS 3 Zrotation Xrotation Yrotation
                    End Site
                    {
                      OFFSET 0 0 0
                    }
                  }
                }
              }
            }
          }
        }
        JOINT LeftShoulder
        {
          OFFSET 4.34795 11.1512 -0.605422
          CHANNELS 3 Zrotation Xrotation Yrotation
          JOINT LeftArm
          {
            OFFSET 0 14.6258 0
            CHANNELS 3 Zrotation Xrotation Yrotation
            JOINT LeftArmRoll
            {
              OFFSET 0 7.3834 0
              CHANNELS 3 Zrotation Xrotation Yrotation
              JOINT LeftForeArm
              {
                OFFSET 0 21.5052 0
                CHANNELS 3 Zrotation Xrotation Yrotation
                JOINT LeftForeArmRoll
                {
                  OFFSET 0 8.28532 0
                  CHANNELS 3 Zrotation Xrotation Yrotation
                  JOINT LeftHand
                  {
                    OFFSET 0 16.6268 0
                    CHANNELS 3 Zrotation Xrotation Yrotation
                    End Site
                    {
                      OFFSET 0 0 0
                    }
                  }
                }
              }
            }
          }
        }
      }
    }
  }
  JOINT RightUpLeg
  {
    OFFSET -7.8151 -1.43309 -1.20217
    CHANNELS 3 Zrotation Xrotation Yrotation
    JOINT RightUpLegRoll
    {
      OFFSET 0 19.4959 0
      CHANNELS 3 Zrotation Xrotation Yrotation
      JOINT RightLeg
      {
        OFFSET 0 -24.1427 0
        CHANNELS 3 Zrotation Xrotation Yrotation
        JOINT RightLegRoll
        {
          OFFSET 0 24.2217 0
          CHANNELS 3 Zrotation Xrotation Yrotation
          JOINT RightFoot
          {
            OFFSET 0 20.1605 0
            CHANNELS 3 Zrotation Xrotation Yrotation
            JOINT RightToeBase
            {
              OFFSET 0 16.8532 0
              CHANNELS 3 Zrotation Xrotation Yrotation
              End Site
              {
                OFFSET 0.00714343 8.16187 -0.94078
              }
            }
          }
        }
      }
    }
  }
  JOINT LeftUpLeg
  {
    OFFSET 7.8151 -1.43309 -1.20217
    CHANNELS 3 Zrotation Xrotation Yrotation
    JOINT LeftUpLegRoll
    {
      OFFSET 0 19.496 0
      CHANNELS 3 Zrotation Xrotation Yrotation
      JOINT LeftLeg
      {
        OFFSET 0 24.1426 0
        CHANNELS 3 Zrotation Xrotation Yrotation
        JOINT LeftLegRoll
        {
          OFFSET 0 24.4456 0
          CHANNELS 3 Zrotation Xrotation Yrotation
          JOINT LeftFoot
          {
            OFFSET 0 19.9366 0
            CHANNELS 3 Zrotation Xrotation Yrotation
            JOINT LeftToeBase
            {
              OFFSET 0 16.8532 0
              CHANNELS 3 Zrotation Xrotation Yrotation
              End Site
              {
                OFFSET -0.0320138 8.16187 -0.94078
              }
            }
          }
        }
      }
    }
  }
}
MOTION
Frames: 7
Frame Time: 0.00208333
51.3926 100.613 10.1283 0.259227 -5.40742 1.69386 0.00670855 -2.33031 -0.0112152 0.0137586 -0.657828 -0.0239376 0.014036 0.987247 -0.0245459 -7.92748 29.9218 -7.18393 18.3342 -7.1666 -7.00542 62.2069 -3.54913 -2.49098 120.557 20.8225 -64.2336 2.32977e-007 -4.366e-008 -7.91424e-007 -130.757 72.7 112.064 -6.34404e-006 2.70584e-006 -2.99999 8.02891 -4.95147 0.697695 -60.8723 -4.19092 2.76357 -121.157 33.6052 41.5669 2.63253e-006 3.30722e-006 -6.97918e-008 101.012 86.4873 -93.5123 8.25135e-006 3.83203e-006 3.005 -8.02887 -4.95146 -0.697672 176.335 -4.5893 1.06181 180 7.01516e-015 178.797 178.636 8.85066 179.673 -2.873e-007 -7.33988e-006 0.209909 -20.8846 70.4352 21.8339 8.15368 25.5094 -3.11141 -176.196 -4.01945 1.45728 4.54188e-006 -4.6773e-006 -1.20354 -2.20957 -7.40037 0.156585 3.15495e-006 -4.96529e-006 -0.12504 19.5769 68.9759 -20.3888 -8.14694 25.3871 3.27417 
51.3815 100.608 10.1244 0.258425 -5.39997 1.69032 0.00647737 -2.33438 -0.0109137 0.0129785 -0.665966 -0.0254128 0.0132753 0.979109 -0.0260355 -7.88411 30.0044 -7.19898 18.3066 -7.24012 -7.00106 62.2516 -3.58239 -2.51345 120.403 20.8726 -64.0402 2.32977e-007 -4.366e-008 -7.91424e-007 -130.866 72.667 112.157 -6.34404e-006 2.70584e-006 -2.99999 8.02891 -4.95147 0.697695 -60.8574 -4.18785 2.76033 -121.009 33.5547 41.4801 2.63253e-006 3.30722e-006 -6.97918e-008 101.61 86.4525 -94.0824 8.25135e-006 3.83203e-006 3.005 -8.02887 -4.95146 -0.697672 176.335 -4.57874 1.06064 180 7.01516e-015 178.797 178.636 8.85209 179.673 -2.873e-007 -7.33988e-006 0.209926 -20.8827 70.4335 21.832 8.15368 25.5094 -3.11081 -176.196 -4.01045 1.45687 4.54188e-006 -4.6773e-006 -1.20359 -2.21073 -7.4022 0.156363 3.15495e-006 -4.96529e-006 -0.125066 19.5759 68.975 -20.3878 -8.14694 25.3871 3.27388 
51.386 100.609 10.1196 0.257634 -5.39287 1.6875 0.00624943 -2.33823 -0.0106002 0.0122625 -0.673656 -0.0264172 0.0125749 0.971417 -0.0270459 -7.83991 30.0798 -7.21528 18.278 -7.30335 -6.99904 62.2899 -3.61395 -2.5343 120.253 20.9192 -63.8344 2.32977e-007 -4.366e-008 -7.91424e-007 -130.991 72.6315 112.267 -6.34404e-006 2.70584e-006 -2.99999 8.02891 -4.95147 0.697695 -60.8414 -4.18315 2.75596 -120.865 33.5065 41.3917 2.63253e-006 3.30722e-006 -6.97918e-008 102.222 86.4189 -94.6672 8.25135e-006 3.83203e-006 3.005 -8.02887 -4.95146 -0.697672 176.335 -4.56858 1.05955 180 7.01516e-015 178.797 178.637 8.85359 179.673 -2.873e-007 -7.33988e-006 0.209943 -20.8809 70.432 21.8301 8.15368 25.5094 -3.11036 -176.196 -4.00157 1.45644 4.54188e-006 -4.6773e-006 -1.20364 -2.21189 -7.40406 0.15614 3.15495e-006 -4.96529e-006 -0.12509 19.575 68.974 -20.3869 -8.14694 25.387 3.27361 
51.3888 100.611 10.1189 0.256855 -5.3863 1.68547 0.00603974 -2.34177 -0.0102761 0.0116519 -0.680731 -0.0268754 0.0119754 0.964343 -0.0275005 -7.79536 30.1466 -7.2329 18.249 -7.3547 -6.99973 62.3203 -3.64338 -2.55316 120.109 20.961 -63.6145 2.32977e-007 -4.366e-008 -7.91424e-007 -131.138 72.5927 112.397 -6.34404e-006 2.70584e-006 -2.99999 8.02891 -4.95147 0.697695 -60.8241 -4.17687 2.75043 -120.726 33.4613 41.3022 2.63253e-006 3.30722e-006 -6.97918e-008 102.85 86.3869 -95.2698 8.25135e-006 3.83203e-006 3.005 -8.02887 -4.95146 -0.697672 176.335 -4.55906 1.05856 180 7.01516e-015 178.797 178.637 8.85517 179.673 -2.873e-007 -7.33988e-006 0.20996 -20.8794 70.4306 21.8285 8.15368 25.5094 -3.1101 -176.195 -3.99298 1.45598 4.54188e-006 -4.6773e-006 -1.20369 -2.21301 -7.40596 0.155921 3.15495e-006 -4.96529e-006 -0.125114 19.5742 68.9731 -20.3859 -8.14693 25.387 3.27335 
51.4064 100.61 10.1149 0.256017 -5.37971 1.68438 0.00576688 -2.34525 -0.00989459 0.0109745 -0.687712 -0.0267289 0.0113047 0.957361 -0.0273391 -7.74618 30.208 -7.25323 18.2157 -7.39663 -7.00328 62.3468 -3.67223 -2.57119 119.966 20.999 -63.3835 2.32977e-007 -4.366e-008 -7.91424e-007 -131.3 72.5506 112.54 -6.34404e-006 2.70584e-006 -2.99999 8.02891 -4.95147 0.697695 -60.8051 -4.16736 2.74274 -120.589 33.4172 41.2091 2.63253e-006 3.30722e-006 -6.97918e-008 103.5 86.3559 -95.8949 8.25135e-006 3.83203e-006 3.005 -8.02887 -4.95146 -0.697672 176.335 -4.54956 1.05754 180 7.01516e-015 178.797 178.637 8.85684 179.673 -2.873e-007 -7.33988e-006 0.209977 -20.8779 70.4294 21.827 8.15368 25.5094 -3.10999 -176.195 -3.98396 1.45541 4.54188e-006 -4.6773e-006 -1.20373 -2.21417 -7.40806 0.155688 3.15495e-006 -4.96529e-006 -0.125143 19.5732 68.9721 -20.385 -8.14693 25.387 3.27308 
51.4008 100.609 10.1132 0.255068 -5.37253 1.68423 0.00535383 -2.34896 -0.00941935 0.0100567 -0.695183 -0.0260221 0.0103898 0.949889 -0.0266061 -7.68868 30.2678 -7.27719 18.1747 -7.43279 -7.00939 62.374 -3.7021 -2.58966 119.819 21.0349 -63.1453 2.32977e-007 -4.366e-008 -7.91424e-007 -131.47 72.5057 112.691 -6.34404e-006 2.70584e-006 -2.99999 8.02891 -4.95147 0.697695 -60.7848 -4.15339 2.73214 -120.451 33.3719 41.11 2.63253e-006 3.30722e-006 -6.97918e-008 104.17 86.3248 -96.5418 8.25135e-006 3.83203e-006 3.005 -8.02887 -4.95146 -0.697672 176.335 -4.53938 1.05635 180 7.01516e-015 178.797 178.638 8.85862 179.673 -2.873e-007 -7.33988e-006 0.209993 -20.8764 70.4281 21.8254 8.15368 25.5094 -3.10998 -176.194 -3.97377 1.45465 4.54188e-006 -4.6773e-006 -1.20378 -2.21548 -7.41049 0.155424 3.15495e-006 -4.96529e-006 -0.125182 19.5722 68.9709 -20.3839 -8.14693 25.3869 3.2728 
51.3915 100.609 10.112 0.254036 -5.36482 1.68489 0.00482218 -2.35287 -0.00886806 0.00893735 -0.70306 -0.0248334 0.00927011 0.942013 -0.0253814 -7.62423 30.3258 -7.30416 18.1271 -7.46336 -7.01771 62.4014 -3.73268 -2.60838 119.669 21.069 -62.9001 2.32977e-007 -4.366e-008 -7.91424e-007 -131.65 72.4584 112.849 -6.34404e-006 2.70584e-006 -2.99999 8.02891 -4.95147 0.697695 -60.7632 -4.13561 2.71905 -120.312 33.3257 41.0056 2.63253e-006 3.30722e-006 -6.97918e-008 104.857 86.2937 -97.2064 8.25135e-006 3.83203e-006 3.005 -8.02887 -4.95146 -0.697672 176.336 -4.52859 1.05502 180 7.01516e-015 178.797 178.638 8.86055 179.673 -2.873e-007 -7.33988e-006 0.21001 -20.875 70.4268 21.8239 8.15368 25.5095 -3.11008 -176.194 -3.96257 1.45373 4.54188e-006 -4.6773e-006 -1.20382 -2.21691 -7.41318 0.155133 3.15495e-006 -4.96529e-006 -0.125229 19.571 68.9697 -20.3826 -8.14693 25.3869 3.27251 
